<svg xmlns="http://www.w3.org/2000/svg" version="1.1" xmlns:xlink="http://www.w3.org/1999/xlink" xmlns:svgjs="http://svgjs.dev/svgjs" width="345" height="281" viewBox="0 0 120 120" style="background: rgb(0, 0, 0);"><svg viewBox="0 0 100.00000762939453 99.21461486816406" width="100" height="100" x="10" y="10" style="fill: rgb(255, 255, 255);"><svg xmlns="http://www.w3.org/2000/svg" viewBox="0 0 30.94 29.16"><path d="m15.47,0C6.97,0,0,6.89,0,15.38c0,6.04,3.47,11.26,8.47,13.77v-12.57l-4.06.25-1.18-3.63s4.03-2.83,7.02-3.59c.73,2.18,2.78,3.76,5.21,3.76s4.47-1.58,5.2-3.76c2.99.76,7,3.59,7,3.59l-1.13,3.63-4.06-.25v12.56c5-2.52,8.47-7.73,8.47-13.77C30.94,6.89,23.97,0,15.47,0Z"></path></svg></svg><text fill="#000000" font-family="Helvetica" font-size="53px" x="60" y="110"><tspan dy="0" x="60"></tspan></text><text fill="#ffffff" font-family="Helvetica" font-size="24px" x="60" y="110"><tspan dy="0" x="60"></tspan></text></svg>